<?xml version="1.0" encoding="UTF-8"?><svg id="Layer_2" xmlns="http://www.w3.org/2000/svg" viewBox="0 0 319.81 345.73"><defs><style>.cls-1{fill:#96a3b8;}.cls-2{fill:#d6d8de;}</style></defs><g id="Layer_1-2"><g><path class="cls-1" d="M0,267v-4.98c4.48-1.7,9.35-1.58,13.85-3.63,13.86-6.3,26.4-14.7,38.67-23.51,16.5-11.84,32.09-24.79,46.22-39.42,1.33-1.37,3.48-2.81,1.26-4.93-5.74-5.5-4.32-12.06-2.93-18.59,.26-1.22,.32-2.07-.33-3.2-4.23-7.38-1.32-16.1,6.65-18.74,3.24-1.07,3.55-2.55,2.38-4.95-3.76-7.73-6.17-16.12-10.89-23.34-5.46-8.37-9.75-17.28-13.84-26.36-7-15.52-6.8-30.49,1.65-45.49,4.79-8.51,11.71-15.23,17.6-22.81C116.94,5.61,151.48-6.9,178.8,4.03c1.54,.62,3.09,1.6,4.67,1.65,11.32,.38,18.91,7.35,24.92,15.47,7.36,9.94,13.31,21.04,15.03,33.52,1.17,8.49,1.5,17.23-.44,25.73-1.32,5.76-3.53,11.33-4.23,17.22-1.05,8.87-1.51,17.82-2.87,26.64-.93,6.07-1.74,12.11-1.85,18.24-.03,1.69-.41,3.43,1.45,4.37,3.65,1.85,5.99,4.93,8.62,7.97,7.12,8.21,7.34,8.02-1.35,14.56-.13,.1-.27,.19-.41,.28-2.58,1.54-2.67,3.14-.79,5.59,15.18,19.76,32.37,37.52,53.09,51.49,11.07,7.46,22.14,15.53,36.39,15.97,3.01,.09,5.92,.46,8.78,1.35v3.99c-4.16,5.37-8.2,10.84-12.52,16.08-4.8,5.83-8.11,6.67-14.88,4.51-1.57-.5-3.22-.73-4.81-1.16-5.66-1.55-6.52-.94-6.65,4.85-.18,7.92-3.21,9.91-10.72,6.85-2.04-.83-3.03-.68-4.38,1.37-4.84,7.36-11.25,12.3-20.57,13.14-5.9,.53-11.68,.03-17.38-.9-7.83-1.27-9.18-3.41-9.1-11.42,.02-1.83,.11-3.66,0-5.47-.09-1.4-.6-2.68-2.42-2.4-2.54,.39-6,5.85-5.92,8.55,.32,10.68,5.76,19.42,11.44,27.66,9.26,13.43,5.06,13.36-2.91,21.31-7.24,7.21-14.84,13.98-26.07,13.81-16.02-.02-32.03-.03-48.05-.05-4.13-.37-8.26-.89-12.4-1.07-16.74-.74-33.32-3.3-50.03-4.49-16.15-1.15-32.22-3.94-48.05-7.55-6.11-1.39-12.03-3.66-17.98-5.7-1.27-.44-3.21-1.11-2.78-2.96,.37-1.57,2.17-1.38,3.44-1.24,4.6,.49,8.82-1.49,13.29-1.82,18.52-1.37,36.97-3.07,55.13-7.26,16.8-3.87,33.22-8.96,49.54-14.44,4.26-1.43,9.73-2.16,5.9-9.04-.74-1.32,.76-3.35-.84-4.65-2.5-2.02-14.86-.61-16.76,2.29-5.21,7.93-14.81,3.99-21.39,8.13-.53,.33-1.84-.51-2.75-.89-1.14-.47-2.3-.6-3.38-.04-4.63,2.42-8.29-.27-12.11-2.19-2.35-1.18-3.59-5.24-6.1-4.36-2.29,.8-3.97,3.84-5.53,6.17-4.1,6.14-8.84,11.17-16.79,11.96-6.43,.64-12.82,1.78-19.27,2.23-7.95,.55-9.83-1.55-10.04-9.71-.09-3.44,.48-6.87-.59-10.34-3.86-12.61-13.03-18.62-25.41-20.8Z"/><path class="cls-2" d="M144.91,345.73c.01-.32,0-.64-.02-.96,16.02,.02,32.03,.03,48.05,.05-.03,.3-.04,.61-.05,.91h-47.97Z"/><path class="cls-1" d="M280.85,21.87c3.82,.16,7.64-.08,11.12,2.1,2.35,1.47,5.21,3.54,4.95,5.82-.51,4.56,2.35,5.49,5.15,7.41,6.93,4.76,9.61,13.08,7.27,21.04-.89,3.02,.96,5.6,2.02,7.95,1.6,3.55,.75,6.16-1.4,8.62-4.11,4.68-9.11,8.2-15.2,9.79-1.67,.43-2.5,1.2-3.28,2.6-1.29,2.3-2.69,4.57-4.29,6.67-4.37,5.73-10.84,6.14-17.02,5.3-6.14-.83-12.45-1.96-17.51-6.36-2.61-2.27-5.42-4.62-8.56-5.93-5.67-2.37-9.35-5.62-9.82-12.18-.34-4.75-1.71-9.43-2.41-14.17-.37-2.47,0-4.91,1.36-7.18,2.64-4.41,5.26-8.83,7.65-13.38,1.97-3.75,4.93-5.79,9.09-5.85,2.41-.03,4.56-.8,5.44-2.82,3.01-6.95,9.25-7.8,15.52-8.63,3.29-.44,6.62-.55,9.93-.8Z"/></g></g></svg>