<svg width="36" height="28" viewBox="0 0 36 28" fill="none" xmlns="http://www.w3.org/2000/svg">
<path fill-rule="evenodd" clip-rule="evenodd" d="M12.1119 20.2928C13.8761 21.3133 15.8913 21.8529 17.9407 21.8529L17.9397 21.8508C24.3669 21.8508 29.5952 16.6214 29.5952 10.1952C29.5952 6.04826 27.363 2.18018 23.7696 0.100821C23.386 -0.120365 22.8966 0.00999548 22.6743 0.393598C22.4531 0.7772 22.5835 1.26766 22.9671 1.48884C26.068 3.2829 27.9935 6.61885 27.9935 10.1963C27.9935 15.7398 23.4832 20.249 17.9407 20.249C16.1734 20.249 14.4349 19.7842 12.9144 18.9048C12.5318 18.6836 12.0414 18.814 11.8191 19.1976C11.5979 19.5812 11.7294 20.0706 12.1119 20.2928ZM17.9407 27.9351C8.16047 27.9351 0.203125 19.9778 0.203125 10.1975C0.203125 9.75517 0.562151 9.39614 1.00452 9.39614C1.44689 9.39614 1.80592 9.75517 1.80592 10.1975C1.80592 19.0941 9.04414 26.3323 17.9407 26.3323C26.8373 26.3323 34.0755 19.0941 34.0755 10.1975C34.0755 9.75517 34.4346 9.39614 34.8769 9.39614C35.3193 9.39614 35.6783 9.75517 35.6783 10.1975C35.6783 19.9778 27.721 27.9351 17.9407 27.9351ZM17.9408 24.8941C15.356 24.8941 12.8139 24.2135 10.5893 22.9259C8.4319 21.6768 6.61326 19.887 5.32996 17.7488C5.10236 17.3695 5.22524 16.8769 5.60457 16.6493C5.9839 16.4217 6.47649 16.5446 6.70409 16.9239C7.84741 18.8302 9.46838 20.4255 11.3917 21.5389C13.3728 22.6855 15.637 23.2913 17.9397 23.2913C25.1597 23.2913 31.0335 17.4176 31.0335 10.1975C31.0335 9.75517 31.3925 9.39614 31.8349 9.39614C32.2772 9.39614 32.6362 9.75517 32.6362 10.1975C32.6362 18.3013 26.0434 24.8941 17.9397 24.8941H17.9408ZM17.9407 18.811C17.4983 18.811 17.1393 18.4519 17.1393 18.0096C17.1393 17.5672 17.4983 17.2082 17.9407 17.2082C21.8066 17.2082 24.9513 14.0635 24.9513 10.1975C24.9513 9.75518 25.3103 9.39615 25.7527 9.39615C26.1951 9.39615 26.5541 9.75518 26.5541 10.1975C26.5541 14.9472 22.6903 18.811 17.9407 18.811ZM19.6335 14.7313C19.782 14.9888 20.0513 15.132 20.328 15.132C20.4648 15.132 20.6026 15.0968 20.7287 15.0241C22.4469 14.0293 23.5144 12.1807 23.5144 10.1975C23.5144 9.75518 23.1554 9.39615 22.713 9.39615C22.2706 9.39615 21.9116 9.75518 21.9116 10.1975C21.9116 11.6101 21.1508 12.9276 19.9263 13.6361C19.5427 13.8583 19.4112 14.3488 19.6335 14.7313Z" fill="#FF1D00"/>
</svg>
