<svg data-name="Group 853" xmlns="http://www.w3.org/2000/svg" width="36" height="36" viewBox="0 0 36 36">
    <defs>
        <clipPath id="4q2qqg710a">
            <path data-name="Rectangle 573" style="fill:none" d="M0 0h36v36H0z"/>
        </clipPath>
    </defs>
    <g data-name="Group 853" style="clip-path:url(#4q2qqg710a)">
        <path data-name="Path 199924" d="M31.109 25.76c-.221 1.074-.394 2.162-.678 3.219a2.713 2.713 0 0 1-1.659 2.22 2.624 2.624 0 0 1-2-.335 35.405 35.405 0 0 1-3.638-2.351c-1.636-1.007-3.1-2.269-4.761-3.24-.467-.33-.944-.647-1.4-.992-1.385-1.05-1.464-1.879-.241-3.11 1.067-1.074 2.178-2.1 3.279-3.144 1.911-1.8 3.858-3.567 5.663-5.478.268-.284.7-.6.358-1.019s-.775-.1-1.123.122c-4.05 2.58-8.007 5.3-12 7.97a6.227 6.227 0 0 1-2.673 1.119 6.177 6.177 0 0 1-2.265-.268 39.867 39.867 0 0 1-4.869-1.5 2.719 2.719 0 0 1-.611-.309.879.879 0 0 1-.091-1.535 4.367 4.367 0 0 1 1.268-.776c7.633-3.281 15.222-6.669 22.935-9.763a29.629 29.629 0 0 1 5.244-1.816c1.416-.279 2.228.373 2.143 1.814-.113 1.949-.414 3.882-.715 5.81-.578 3.7-1.2 7.4-1.8 11.1-.123.755-.249 1.509-.373 2.263" style="fill:#fff"/>
    </g>
</svg>
