<svg data-name="Group 852" xmlns="http://www.w3.org/2000/svg" width="36" height="36" viewBox="0 0 36 36">
    <defs>
        <clipPath id="m964ddlbca">
            <path data-name="Rectangle 572" style="fill:none" d="M0 0h36v36H0z"/>
        </clipPath>
    </defs>
    <g data-name="Group 852" style="clip-path:url(#m964ddlbca)">
        <path data-name="Path 199923" d="M13.122 31.023q-.459.026-.921.028a19.083 19.083 0 0 1-9.191-2.3c-.344-.186-.674-.4-1.01-.6a13.679 13.679 0 0 0 9.6-2.763 6.784 6.784 0 0 1-6.133-4.6 7.192 7.192 0 0 0 2.9-.126 6.537 6.537 0 0 1-5.138-6.508 6.5 6.5 0 0 0 2.852.759A6.606 6.606 0 0 1 4.14 6.182a18.76 18.76 0 0 0 13.536 6.854c-.039-.457-.1-.862-.1-1.267a8.124 8.124 0 0 1 .065-1.218A6.578 6.578 0 0 1 28.719 6.8c.1.095.278.21.384.182.754-.205 1.511-.413 2.244-.683.59-.218 1.146-.525 1.756-.811a6.823 6.823 0 0 1-2.7 3.524A12.8 12.8 0 0 0 34 8.045c-.083.127-.121.188-.162.247A12.682 12.682 0 0 1 31 11.233a.592.592 0 0 0-.262.578 16.025 16.025 0 0 1-.307 3.867 19.254 19.254 0 0 1-4.947 9.729 18.3 18.3 0 0 1-12.357 5.616" style="fill:#fff"/>
    </g>
</svg>
